<svg width="21" height="20" viewBox="0 0 21 20" fill="none" xmlns="http://www.w3.org/2000/svg">
<g clip-path="url(#clip0_738_3307)">
<path d="M9.08341 6.41667C8.75841 6.74167 8.75841 7.25833 9.08341 7.58333L10.6667 9.16667H3.00008C2.54175 9.16667 2.16675 9.54167 2.16675 10C2.16675 10.4583 2.54175 10.8333 3.00008 10.8333H10.6667L9.08341 12.4167C8.75841 12.7417 8.75841 13.2583 9.08341 13.5833C9.40841 13.9083 9.92508 13.9083 10.2501 13.5833L13.2417 10.5917C13.5667 10.2667 13.5667 9.74167 13.2417 9.41667L10.2501 6.41667C9.92508 6.09167 9.40841 6.09167 9.08341 6.41667ZM17.1667 15.8333H11.3334C10.8751 15.8333 10.5001 16.2083 10.5001 16.6667C10.5001 17.125 10.8751 17.5 11.3334 17.5H17.1667C18.0834 17.5 18.8334 16.75 18.8334 15.8333V4.16667C18.8334 3.25 18.0834 2.5 17.1667 2.5H11.3334C10.8751 2.5 10.5001 2.875 10.5001 3.33333C10.5001 3.79167 10.8751 4.16667 11.3334 4.16667H17.1667V15.8333Z" fill="white"/>
</g>
<defs>
<clipPath id="clip0_738_3307">
<rect width="20" height="20" fill="white" transform="translate(0.5)"/>
</clipPath>
</defs>
</svg>
