<svg width="20" height="20" viewBox="0 0 20 20" fill="none" xmlns="http://www.w3.org/2000/svg">
<g clip-path="url(#clip0_1019_1535)">
<path d="M9.99992 3.33325C5.83325 3.33325 2.27492 5.92492 0.833252 9.58325C2.27492 13.2416 5.83325 15.8333 9.99992 15.8333C14.1666 15.8333 17.7249 13.2416 19.1666 9.58325C17.7249 5.92492 14.1666 3.33325 9.99992 3.33325ZM9.99992 13.7499C7.69992 13.7499 5.83325 11.8833 5.83325 9.58325C5.83325 7.28325 7.69992 5.41659 9.99992 5.41659C12.2999 5.41659 14.1666 7.28325 14.1666 9.58325C14.1666 11.8833 12.2999 13.7499 9.99992 13.7499ZM9.99992 7.08325C8.61659 7.08325 7.49992 8.19992 7.49992 9.58325C7.49992 10.9666 8.61659 12.0833 9.99992 12.0833C11.3833 12.0833 12.4999 10.9666 12.4999 9.58325C12.4999 8.19992 11.3833 7.08325 9.99992 7.08325Z" fill="#878899"/>
</g>
<defs>
<clipPath id="clip0_1019_1535">
<rect width="20" height="20" fill="white"/>
</clipPath>
</defs>
</svg>
